# xmcd
#
# Track frame offsets:
# 150
# 16151
# 30704
# 51619
# 68489
# 83091
# 98868
# 112311
# 129258
# 144261
# 158308
# 174699
# 190509
# 209280
#
# Disc length: 2970 seconds
#
#
# Revision: 0
# Processed by: cddbd v1.5.2PL0 Copyright (c) Steve Scherf et al.
# Submitted via: FreeRIP 2.945 
#
DISCID=b20b980e
DTITLE=Zeïïi - Mana Dziesma
DYEAR=2006
DGENRE=Country
TTITLE0=Draugu dziesma
TTITLE1=Tas bija zvaigznç ierakstîts
TTITLE2=Man ir skumji mazliet
TTITLE3=Mana dziesma
TTITLE4=Zaïâ kïava
TTITLE5=Augu dienu
TTITLE6=Vecis lâpa buru
TTITLE7=Mans mantojums
TTITLE8=Baltais cerîbu zieds
TTITLE9=Meþa mâtes dziesmiòa
TTITLE10=Divatâ dungojamâ
TTITLE11=Mûþigâ Jânu nakts
TTITLE12=Kas peteikt var
TTITLE13=Mâte mani râtin' râja
EXTD=
EXTT0=
EXTT1=
EXTT2=
EXTT3=
EXTT4=
EXTT5=
EXTT6=
EXTT7=
EXTT8=
EXTT9=
EXTT10=
EXTT11=
EXTT12=
EXTT13=
PLAYORDER=
